{
	"nodes":[{
		"name":"Polygon Reduction",
		"translation":[0.0,
		0.0,
		0.12199879437685013],
		"rotation":[0.0,
		0.0,
		0.0,
		-1.0],
		"scale":[1.0,
		1.0,
		1.0],
		"children":[1]
	},
	{
		"name":"LotTing",
		"mesh":0
	}],
	"asset":{
		"version":"2.0",
		"generator":"Created using the official Cinema 4D glTF Exporter 1.000x284978"
	},
	"scenes":[{
		"nodes":[0]
	}],
	"meshes":[{
		"name":"LotTing",
		"primitives":[{
			"attributes":{
				"POSITION":1,
				"NORMAL":2,
				"TEXCOORD_0":3
			},
			"indices":0
		}]
	}],
	"buffers":[{
		"uri":"data:application/octet-stream;base64,",
		"byteLength":14584
	}],
	"accessors":[{
		"bufferView":0,
		"type":"SCALAR",
		"componentType":5123,
		"count":1980,
		"byteOffset":0,
		"min":[0],
		"max":[331]
	},
	{
		"bufferView":1,
		"type":"VEC3",
		"componentType":5126,
		"count":332,
		"byteOffset":0,
		"min":[-1.284060001373291,
		-0.6901775002479553,
		-1.4102262258529664],
		"max":[1.3000479936599732,
		0.688762366771698,
		1.011713981628418]
	},
	{
		"bufferView":1,
		"type":"VEC3",
		"componentType":5126,
		"count":332,
		"byteOffset":12,
		"min":[-0.9998326301574707,
		-0.9980404376983643,
		-0.9917814135551453],
		"max":[0.9989475607872009,
		0.9959135055541992,
		0.9906303882598877]
	},
	{
		"bufferView":1,
		"type":"VEC2",
		"componentType":5126,
		"count":332,
		"byteOffset":24,
		"min":[0.0057825446128845219,
		0.049721792340278628],
		"max":[0.9954627752304077,
		0.9609640836715698]
	}],
	"bufferViews":[{
		"buffer":0,
		"byteOffset":0,
		"byteLength":3960,
		"target":34963
	},
	{
		"buffer":0,
		"byteOffset":3960,
		"byteLength":10624,
		"target":34962,
		"byteStride":32
	}]
}