{
	"asset":{
		"version":"2.0",
		"generator":"Created using the official Cinema 4D glTF Exporter 1.000x284978"
	},
	"scenes":[{
		"nodes":[0]
	}],
	"nodes":[{
		"name":"Compass",
		"translation":[0.0,
		0.0,
		0.0],
		"rotation":[-0.1649404913187027,
		-0.16301074624061585,
		0.35175856947898867,
		-0.9069112539291382],
		"scale":[1.0,
		1.0,
		1.0],
		"children":[1,
		2,
		6]
	},
	{
		"name":"RING",
		"translation":[13.14018726348877,
		5.684341759025859e-16,
		10.191756248474121],
		"rotation":[0.0,
		0.0,
		0.0,
		-1.0],
		"scale":[1.0,
		1.0,
		1.0],
		"mesh":0
	},
	{
		"name":"NEEDLE",
		"translation":[13.14018726348877,
		4.2632563192693947e-16,
		10.191756248474121],
		"rotation":[0.0,
		0.0,
		0.0,
		-1.0],
		"scale":[1.0,
		1.0,
		1.0],
		"children":[3,
		4,
		5]
	},
	{
		"name":"object_2",
		"mesh":1
	},
	{
		"name":"object_3",
		"mesh":2
	},
	{
		"name":"object_4",
		"mesh":3
	},
	{
		"name":"Boole",
		"children":[7]
	},
	{
		"name":"object_6",
		"translation":[13.14018726348877,
		5.684341759025859e-16,
		10.191756248474121],
		"rotation":[0.0,
		0.0,
		0.0,
		-1.0],
		"scale":[1.0,
		1.0,
		1.0],
		"mesh":4
	}],
	"meshes":[{
		"name":"RING",
		"primitives":[{
			"attributes":{
				"POSITION":1,
				"NORMAL":2,
				"TEXCOORD_0":3
			},
			"indices":0,
			"material":0
		}]
	},
	{
		"name":"object_2",
		"primitives":[{
			"attributes":{
				"POSITION":5,
				"NORMAL":6,
				"TEXCOORD_0":7
			},
			"indices":4,
			"material":1
		}]
	},
	{
		"name":"object_3",
		"primitives":[{
			"attributes":{
				"POSITION":9,
				"NORMAL":10,
				"TEXCOORD_0":11
			},
			"indices":8,
			"material":0
		}]
	},
	{
		"name":"object_4",
		"primitives":[{
			"attributes":{
				"POSITION":13,
				"NORMAL":14,
				"TEXCOORD_0":15
			},
			"indices":12,
			"material":0
		}]
	},
	{
		"name":"object_6",
		"primitives":[{
			"attributes":{
				"POSITION":17,
				"NORMAL":18,
				"TEXCOORD_0":19
			},
			"indices":16,
			"material":2
		}]
	}],
	"accessors":[{
		"bufferView":0,
		"type":"SCALAR",
		"componentType":5123,
		"count":1128,
		"byteOffset":0,
		"min":[0],
		"max":[379]
	},
	{
		"bufferView":1,
		"type":"VEC3",
		"componentType":5126,
		"count":380,
		"byteOffset":0,
		"min":[-13.888324737548829,
		-0.36507827043533327,
		-10.889245986938477],
		"max":[-12.390000343322754,
		0.36507827043533327,
		-9.490754127502442]
	},
	{
		"bufferView":1,
		"type":"VEC3",
		"componentType":5126,
		"count":380,
		"byteOffset":12,
		"min":[-1.0,
		-0.9043750166893005,
		-0.9038438200950623],
		"max":[1.0,
		0.9043750166893005,
		0.9038438200950623]
	},
	{
		"bufferView":1,
		"type":"VEC2",
		"componentType":5126,
		"count":380,
		"byteOffset":24,
		"min":[0.0,
		0.0],
		"max":[1.0,
		1.0]
	},
	{
		"bufferView":2,
		"type":"SCALAR",
		"componentType":5123,
		"count":420,
		"byteOffset":0,
		"min":[0],
		"max":[145]
	},
	{
		"bufferView":3,
		"type":"VEC3",
		"componentType":5126,
		"count":146,
		"byteOffset":0,
		"min":[-13.7123384475708,
		0.011538897641003132,
		-10.363555908203125],
		"max":[-13.189444541931153,
		0.2814965844154358,
		-10.154706954956055]
	},
	{
		"bufferView":3,
		"type":"VEC3",
		"componentType":5126,
		"count":146,
		"byteOffset":12,
		"min":[-0.9116875529289246,
		-0.8245313167572022,
		-0.921125054359436],
		"max":[0.9116875529289246,
		0.8245313167572022,
		0.921125054359436]
	},
	{
		"bufferView":3,
		"type":"VEC2",
		"componentType":5126,
		"count":146,
		"byteOffset":24,
		"min":[0.0,
		0.0],
		"max":[1.0,
		1.0]
	},
	{
		"bufferView":4,
		"type":"SCALAR",
		"componentType":5123,
		"count":552,
		"byteOffset":0,
		"min":[0],
		"max":[189]
	},
	{
		"bufferView":5,
		"type":"VEC3",
		"componentType":5126,
		"count":190,
		"byteOffset":0,
		"min":[-13.787466049194336,
		-0.27904072403907778,
		-10.332592010498047],
		"max":[-12.492534637451172,
		0.2790287733078003,
		-10.047445297241211]
	},
	{
		"bufferView":5,
		"type":"VEC3",
		"componentType":5126,
		"count":190,
		"byteOffset":12,
		"min":[-0.9116875529289246,
		-0.928156316280365,
		-0.9844688177108765],
		"max":[0.9116875529289246,
		0.9275313019752502,
		0.9826250672340393]
	},
	{
		"bufferView":5,
		"type":"VEC2",
		"componentType":5126,
		"count":190,
		"byteOffset":24,
		"min":[0.0,
		0.0],
		"max":[1.0,
		1.0]
	},
	{
		"bufferView":6,
		"type":"SCALAR",
		"componentType":5123,
		"count":1128,
		"byteOffset":0,
		"min":[0],
		"max":[379]
	},
	{
		"bufferView":7,
		"type":"VEC3",
		"componentType":5126,
		"count":380,
		"byteOffset":0,
		"min":[-13.820069313049317,
		-0.4508539140224457,
		-10.87713623046875],
		"max":[-12.458453178405762,
		0.45137274265289309,
		-9.50326919555664]
	},
	{
		"bufferView":7,
		"type":"VEC3",
		"componentType":5126,
		"count":380,
		"byteOffset":12,
		"min":[-0.9116875529289246,
		-0.8245313167572022,
		-0.9209063053131104],
		"max":[0.9116875529289246,
		0.8245313167572022,
		0.9209063053131104]
	},
	{
		"bufferView":7,
		"type":"VEC2",
		"componentType":5126,
		"count":380,
		"byteOffset":24,
		"min":[0.0,
		0.0],
		"max":[1.0,
		1.0]
	},
	{
		"bufferView":8,
		"type":"SCALAR",
		"componentType":5123,
		"count":11904,
		"byteOffset":0,
		"min":[1],
		"max":[2299]
	},
	{
		"bufferView":9,
		"type":"VEC3",
		"componentType":5126,
		"count":2300,
		"byteOffset":0,
		"min":[-13.9399995803833,
		-0.800000011920929,
		-10.989999771118164],
		"max":[-12.34000015258789,
		0.800000011920929,
		-9.390000343322754]
	},
	{
		"bufferView":9,
		"type":"VEC3",
		"componentType":5126,
		"count":2300,
		"byteOffset":12,
		"min":[-1.0,
		-1.0,
		-1.0],
		"max":[1.0,
		1.0,
		1.0]
	},
	{
		"bufferView":9,
		"type":"VEC2",
		"componentType":5126,
		"count":2300,
		"byteOffset":24,
		"min":[0.0,
		0.0],
		"max":[1.0,
		1.0]
	}],
	"bufferViews":[{
		"buffer":0,
		"byteOffset":0,
		"byteLength":2256,
		"target":34963
	},
	{
		"byteStride":32,
		"buffer":0,
		"byteOffset":2256,
		"byteLength":12160,
		"target":34962
	},
	{
		"buffer":1,
		"byteOffset":0,
		"byteLength":840,
		"target":34963
	},
	{
		"byteStride":32,
		"buffer":1,
		"byteOffset":840,
		"byteLength":4672,
		"target":34962
	},
	{
		"buffer":2,
		"byteOffset":0,
		"byteLength":1104,
		"target":34963
	},
	{
		"byteStride":32,
		"buffer":2,
		"byteOffset":1104,
		"byteLength":6080,
		"target":34962
	},
	{
		"buffer":3,
		"byteOffset":0,
		"byteLength":2256,
		"target":34963
	},
	{
		"byteStride":32,
		"buffer":3,
		"byteOffset":2256,
		"byteLength":12160,
		"target":34962
	},
	{
		"buffer":4,
		"byteOffset":0,
		"byteLength":23808,
		"target":34963
	},
	{
		"byteStride":32,
		"buffer":4,
		"byteOffset":23808,
		"byteLength":73600,
		"target":34962
	}],
	"buffers":[{
		"uri":"data:application/octet-stream;base64,",
		"byteLength":14416
	},
	{
		"uri":"data:application/octet-stream;base64,",
		"byteLength":5512
	},
	{
		"uri":"data:application/octet-stream;base64,",
		"byteLength":7184
	},
	{
		"uri":"data:application/octet-stream;base64,",
		"byteLength":14416
	},
	{
		"uri":"data:application/octet-stream;base64,",
		"byteLength":97408
	}],
	"materials":[{
		"pbrMetallicRoughness":{
			"baseColorFactor":[0.7000000000000001,
			0.7000000000000001,
			0.7000000000000001,
			1.0],
			"metallicFactor":0.3,
			"roughnessFactor":0.0
		},
		"emissiveFactor":[0.0,
		0.0,
		0.0],
		"alphaMode":"OPAQUE",
		"doubleSided":true,
		"name":"Metall"
	},
	{
		"pbrMetallicRoughness":{
			"baseColorFactor":[0.9125421979100571,
			0.268754805847901,
			0.10037964177010626,
			1.0],
			"metallicFactor":0.43,
			"roughnessFactor":0.0
		},
		"emissiveFactor":[0.0,
		0.0,
		0.0],
		"alphaMode":"OPAQUE",
		"doubleSided":true,
		"name":"Vinyl-Color"
	},
	{
		"pbrMetallicRoughness":{
			"baseColorFactor":[1.0,
			1.0,
			1.0,
			0.09999999999999998],
			"metallicFactor":1.0,
			"roughnessFactor":0.0
		},
		"emissiveFactor":[0.0,
		0.0,
		0.0],
		"alphaMode":"BLEND",
		"doubleSided":true,
		"name":"Glass"
	}]
}