{
	"nodes":[{
		"name":"Polygon Reduction",
		"children":[1]
	},
	{
		"name":"Connect",
		"children":[2]
	},
	{
		"name":"Normal",
		"mesh":0
	}],
	"asset":{
		"version":"2.0",
		"generator":"Created using the official Cinema 4D glTF Exporter 1.000x284978"
	},
	"scenes":[{
		"nodes":[0]
	}],
	"meshes":[{
		"name":"Normal",
		"primitives":[{
			"attributes":{
				"POSITION":1,
				"NORMAL":2,
				"TEXCOORD_0":3
			},
			"indices":0,
			"material":0
		}]
	}],
	"buffers":[{
		"uri":"data:application/octet-stream;base64,",
		"byteLength":1694140
	}],
	"accessors":[{
		"bufferView":0,
		"type":"SCALAR",
		"componentType":5123,
		"count":130845,
		"byteOffset":0,
		"min":[0],
		"max":[44763]
	},
	{
		"bufferView":1,
		"type":"VEC3",
		"componentType":5126,
		"count":44764,
		"byteOffset":0,
		"min":[-1.5,
		-1.5,
		-2.9100189208984377],
		"max":[1.5720601081848145,
		2.029189348220825,
		1.5]
	},
	{
		"bufferView":1,
		"type":"VEC3",
		"componentType":5126,
		"count":44764,
		"byteOffset":12,
		"min":[-1.0,
		-1.0,
		-1.0],
		"max":[1.0,
		1.0,
		1.0]
	},
	{
		"bufferView":1,
		"type":"VEC2",
		"componentType":5126,
		"count":44764,
		"byteOffset":24,
		"min":[-2.0668321099037713e-7,
		-4.806171668872254e-15],
		"max":[1.0,
		1.0]
	}],
	"bufferViews":[{
		"buffer":0,
		"byteOffset":0,
		"byteLength":261690,
		"target":34963
	},
	{
		"buffer":0,
		"byteOffset":261692,
		"byteLength":1432448,
		"target":34962,
		"byteStride":32
	}],
	"materials":[{
		"pbrMetallicRoughness":{
			"baseColorFactor":[1.0,
			1.0,
			1.0,
			0.020000000000000019],
			"metallicFactor":1.0,
			"roughnessFactor":0.0
		},
		"emissiveFactor":[0.0,
		0.0,
		0.0],
		"alphaMode":"BLEND",
		"doubleSided":true,
		"name":"Glass"
	}]
}