{
	"nodes":[{
		"name":"TeaPot_LowPoly",
		"translation":[0.0,
		0.0,
		0.0],
		"rotation":[0.0,
		-1.0,
		0.0,
		-6.123234262925839e-17],
		"scale":[1.0,
		1.0,
		1.0],
		"children":[1,
		2,
		5,
		8,
		11,
		14,
		15]
	},
	{
		"name":"Handle",
		"translation":[0.0,
		-0.5062780380249023,
		0.0],
		"rotation":[0.0,
		0.0,
		0.0,
		-1.0],
		"scale":[1.0,
		1.0,
		1.0],
		"mesh":0
	},
	{
		"name":"Instance",
		"translation":[0.0,
		-0.5062780380249023,
		0.0],
		"rotation":[1.0,
		-6.123234262925839e-17,
		6.123234262925839e-17,
		6.123234262925839e-17],
		"scale":[1.0,
		1.0,
		1.0],
		"children":[3,
		4]
	},
	{
		"name":"Sphere",
		"translation":[0.0,
		0.12595824897289277,
		-1.1832913313828948e-32],
		"rotation":[0.0,
		0.0,
		0.0,
		-1.0],
		"scale":[1.0,
		1.0,
		1.0],
		"mesh":1
	},
	{
		"name":"Lathe",
		"translation":[0.0,
		-1.0040417909622193,
		-1.577721775177193e-32],
		"rotation":[0.0,
		-5.665538686387998e-16,
		0.0,
		-1.0],
		"scale":[1.0,
		1.0,
		1.0],
		"mesh":2
	},
	{
		"name":"Instance",
		"translation":[-0.5,
		-0.006278025917708874,
		0.0],
		"rotation":[0.5,
		-0.5,
		0.5,
		0.5],
		"scale":[1.0,
		1.0,
		1.0],
		"children":[6,
		7]
	},
	{
		"name":"Sphere",
		"translation":[0.0,
		0.12595824897289277,
		-4.221667105465302e-33],
		"rotation":[0.0,
		0.0,
		0.0,
		-1.0],
		"scale":[1.0,
		1.0,
		1.0],
		"mesh":3
	},
	{
		"name":"Lathe",
		"translation":[-4.560602167083692e-33,
		-1.0040417909622193,
		1.5154128213718488e-35],
		"rotation":[0.0,
		-5.665538686387998e-16,
		0.0,
		-1.0],
		"scale":[1.0,
		1.0,
		1.0],
		"mesh":4
	},
	{
		"name":"Instance",
		"translation":[0.5,
		-0.006278025917708874,
		0.0],
		"rotation":[-0.5,
		-0.5,
		0.5,
		-0.5],
		"scale":[1.0,
		1.0,
		1.0],
		"children":[9,
		10]
	},
	{
		"name":"Sphere",
		"translation":[0.0,
		0.12595824897289277,
		5.1662028976319188e-33],
		"rotation":[0.0,
		0.0,
		0.0,
		-1.0],
		"scale":[1.0,
		1.0,
		1.0],
		"mesh":5
	},
	{
		"name":"Lathe",
		"translation":[1.577721775177193e-32,
		-1.0040417909622193,
		-7.544261030124023e-33],
		"rotation":[0.0,
		-5.665538686387998e-16,
		0.0,
		-1.0],
		"scale":[1.0,
		1.0,
		1.0],
		"mesh":6
	},
	{
		"name":"Lid",
		"translation":[0.0,
		0.4977637231349945,
		0.0],
		"rotation":[0.0,
		0.0,
		0.0,
		-1.0],
		"scale":[1.0,
		1.0,
		1.0],
		"children":[12,
		13]
	},
	{
		"name":"Sphere",
		"translation":[0.0,
		0.12595824897289277,
		0.0],
		"rotation":[0.0,
		0.0,
		0.0,
		-1.0],
		"scale":[1.0,
		1.0,
		1.0],
		"mesh":7
	},
	{
		"name":"Lathe",
		"translation":[0.0,
		-1.0040417909622193,
		0.0],
		"rotation":[0.0,
		-5.665538686387998e-16,
		0.0,
		-1.0],
		"scale":[1.0,
		1.0,
		1.0],
		"mesh":8
	},
	{
		"name":"SpillingThing",
		"translation":[0.0,
		-0.5062780380249023,
		0.0],
		"rotation":[0.0,
		0.0,
		0.0,
		-1.0],
		"scale":[1.0,
		1.0,
		1.0],
		"mesh":9
	},
	{
		"name":"Cube.2",
		"translation":[0.0,
		-0.006278025917708874,
		0.0],
		"rotation":[0.0,
		0.0,
		0.0,
		-1.0],
		"scale":[1.0,
		1.0,
		1.0],
		"mesh":10
	}],
	"asset":{
		"version":"2.0",
		"generator":"Created using the official Cinema 4D glTF Exporter 1.000x284978"
	},
	"scenes":[{
		"nodes":[0]
	}],
	"meshes":[{
		"name":"Handle",
		"primitives":[{
			"attributes":{
				"POSITION":1,
				"NORMAL":2,
				"TEXCOORD_0":3
			},
			"indices":0,
			"material":0
		}]
	},
	{
		"name":"Sphere",
		"primitives":[{
			"attributes":{
				"POSITION":5,
				"NORMAL":6,
				"TEXCOORD_0":7
			},
			"indices":4,
			"material":0
		}]
	},
	{
		"name":"Lathe",
		"primitives":[{
			"attributes":{
				"POSITION":9,
				"NORMAL":10,
				"TEXCOORD_0":11
			},
			"indices":8,
			"material":0
		}]
	},
	{
		"name":"Sphere",
		"primitives":[{
			"attributes":{
				"POSITION":13,
				"NORMAL":14,
				"TEXCOORD_0":15
			},
			"indices":12,
			"material":0
		}]
	},
	{
		"name":"Lathe",
		"primitives":[{
			"attributes":{
				"POSITION":17,
				"NORMAL":18,
				"TEXCOORD_0":19
			},
			"indices":16,
			"material":0
		}]
	},
	{
		"name":"Sphere",
		"primitives":[{
			"attributes":{
				"POSITION":21,
				"NORMAL":22,
				"TEXCOORD_0":23
			},
			"indices":20,
			"material":0
		}]
	},
	{
		"name":"Lathe",
		"primitives":[{
			"attributes":{
				"POSITION":25,
				"NORMAL":26,
				"TEXCOORD_0":27
			},
			"indices":24,
			"material":0
		}]
	},
	{
		"name":"Sphere",
		"primitives":[{
			"attributes":{
				"POSITION":29,
				"NORMAL":30,
				"TEXCOORD_0":31
			},
			"indices":28,
			"material":0
		}]
	},
	{
		"name":"Lathe",
		"primitives":[{
			"attributes":{
				"POSITION":33,
				"NORMAL":34,
				"TEXCOORD_0":35
			},
			"indices":32,
			"material":0
		}]
	},
	{
		"name":"SpillingThing",
		"primitives":[{
			"attributes":{
				"POSITION":37,
				"NORMAL":38,
				"TEXCOORD_0":39
			},
			"indices":36,
			"material":0
		}]
	},
	{
		"name":"Cube.2",
		"primitives":[{
			"attributes":{
				"POSITION":41,
				"NORMAL":42,
				"TEXCOORD_0":43
			},
			"indices":40,
			"material":0
		}]
	}],
	"buffers":[{
		"uri":"data:application/octet-stream;base64,",
		"byteLength":88448
	},
	{
		"uri":"data:application/octet-stream;base64,",
		"byteLength":2528
	},
	{
		"uri":"data:application/octet-stream;base64,",
		"byteLength":15928
	},
	{
		"uri":"data:application/octet-stream;base64,",
		"byteLength":2528
	},
	{
		"uri":"data:application/octet-stream;base64,",
		"byteLength":15928
	},
	{
		"uri":"data:application/octet-stream;base64,",
		"byteLength":2528
	},
	{
		"uri":"data:application/octet-stream;base64,",
		"byteLength":15928
	},
	{
		"uri":"data:application/octet-stream;base64,",
		"byteLength":2528
	},
	{
		"uri":"data:application/octet-stream;base64,",
		"byteLength":15928
	},
	{
		"uri":"data:application/octet-stream;base64,",
		"byteLength":4744
	},
	{
		"uri":"data:application/octet-stream;base64,",
		"byteLength":65568
	}],
	"accessors":[{
		"bufferView":0,
		"type":"SCALAR",
		"componentType":5123,
		"count":11664,
		"byteOffset":0,
		"min":[0],
		"max":[2034]
	},
	{
		"bufferView":1,
		"type":"VEC3",
		"componentType":5126,
		"count":2035,
		"byteOffset":0,
		"min":[-0.05999993905425072,
		0.11123190820217133,
		0.34247729182243349],
		"max":[0.05999993905425072,
		0.9602756500244141,
		1.0147695541381837]
	},
	{
		"bufferView":1,
		"type":"VEC3",
		"componentType":5126,
		"count":2035,
		"byteOffset":12,
		"min":[-0.9999986290931702,
		-0.9995948672294617,
		-0.9988135099411011],
		"max":[0.9999897480010986,
		0.9997895359992981,
		0.9991757869720459]
	},
	{
		"bufferView":1,
		"type":"VEC2",
		"componentType":5126,
		"count":2035,
		"byteOffset":24,
		"min":[0.0,
		0.0],
		"max":[1.0,
		1.0]
	},
	{
		"bufferView":2,
		"type":"SCALAR",
		"componentType":5123,
		"count":240,
		"byteOffset":0,
		"min":[0],
		"max":[63]
	},
	{
		"bufferView":3,
		"type":"VEC3",
		"componentType":5126,
		"count":64,
		"byteOffset":0,
		"min":[-0.04755282402038574,
		-0.05000000074505806,
		-0.04522542655467987],
		"max":[0.04755282402038574,
		0.05000000074505806,
		0.04522542655467987]
	},
	{
		"bufferView":3,
		"type":"VEC3",
		"componentType":5126,
		"count":64,
		"byteOffset":12,
		"min":[-0.9501633048057556,
		-1.0,
		-0.906752347946167],
		"max":[0.9501633048057556,
		1.0,
		0.906752347946167]
	},
	{
		"bufferView":3,
		"type":"VEC2",
		"componentType":5126,
		"count":64,
		"byteOffset":24,
		"min":[0.0,
		0.0],
		"max":[1.0,
		1.0]
	},
	{
		"bufferView":4,
		"type":"SCALAR",
		"componentType":5123,
		"count":1980,
		"byteOffset":0,
		"min":[0],
		"max":[373]
	},
	{
		"bufferView":5,
		"type":"VEC3",
		"componentType":5126,
		"count":374,
		"byteOffset":0,
		"min":[-0.3084108531475067,
		0.9864749312400818,
		-0.32428234815597536],
		"max":[0.3084108531475067,
		1.088111162185669,
		0.32428234815597536]
	},
	{
		"bufferView":5,
		"type":"VEC3",
		"componentType":5126,
		"count":374,
		"byteOffset":12,
		"min":[-0.9509652853012085,
		-0.9992917776107788,
		-0.9998686909675598],
		"max":[0.9509652853012085,
		0.9992269277572632,
		0.9998686909675598]
	},
	{
		"bufferView":5,
		"type":"VEC2",
		"componentType":5126,
		"count":374,
		"byteOffset":24,
		"min":[0.0,
		0.0],
		"max":[1.0,
		1.0]
	},
	{
		"bufferView":6,
		"type":"SCALAR",
		"componentType":5123,
		"count":240,
		"byteOffset":0,
		"min":[0],
		"max":[63]
	},
	{
		"bufferView":7,
		"type":"VEC3",
		"componentType":5126,
		"count":64,
		"byteOffset":0,
		"min":[-0.04755282402038574,
		-0.05000000074505806,
		-0.04522542655467987],
		"max":[0.04755282402038574,
		0.05000000074505806,
		0.04522542655467987]
	},
	{
		"bufferView":7,
		"type":"VEC3",
		"componentType":5126,
		"count":64,
		"byteOffset":12,
		"min":[-0.9501633048057556,
		-1.0,
		-0.906752347946167],
		"max":[0.9501633048057556,
		1.0,
		0.906752347946167]
	},
	{
		"bufferView":7,
		"type":"VEC2",
		"componentType":5126,
		"count":64,
		"byteOffset":24,
		"min":[0.0,
		0.0],
		"max":[1.0,
		1.0]
	},
	{
		"bufferView":8,
		"type":"SCALAR",
		"componentType":5123,
		"count":1980,
		"byteOffset":0,
		"min":[0],
		"max":[373]
	},
	{
		"bufferView":9,
		"type":"VEC3",
		"componentType":5126,
		"count":374,
		"byteOffset":0,
		"min":[-0.3084108531475067,
		0.9864749312400818,
		-0.32428234815597536],
		"max":[0.3084108531475067,
		1.088111162185669,
		0.32428234815597536]
	},
	{
		"bufferView":9,
		"type":"VEC3",
		"componentType":5126,
		"count":374,
		"byteOffset":12,
		"min":[-0.9509652853012085,
		-0.9992917776107788,
		-0.9998686909675598],
		"max":[0.9509652853012085,
		0.9992269277572632,
		0.9998686909675598]
	},
	{
		"bufferView":9,
		"type":"VEC2",
		"componentType":5126,
		"count":374,
		"byteOffset":24,
		"min":[0.0,
		0.0],
		"max":[1.0,
		1.0]
	},
	{
		"bufferView":10,
		"type":"SCALAR",
		"componentType":5123,
		"count":240,
		"byteOffset":0,
		"min":[0],
		"max":[63]
	},
	{
		"bufferView":11,
		"type":"VEC3",
		"componentType":5126,
		"count":64,
		"byteOffset":0,
		"min":[-0.04755282402038574,
		-0.05000000074505806,
		-0.04522542655467987],
		"max":[0.04755282402038574,
		0.05000000074505806,
		0.04522542655467987]
	},
	{
		"bufferView":11,
		"type":"VEC3",
		"componentType":5126,
		"count":64,
		"byteOffset":12,
		"min":[-0.9501633048057556,
		-1.0,
		-0.906752347946167],
		"max":[0.9501633048057556,
		1.0,
		0.906752347946167]
	},
	{
		"bufferView":11,
		"type":"VEC2",
		"componentType":5126,
		"count":64,
		"byteOffset":24,
		"min":[0.0,
		0.0],
		"max":[1.0,
		1.0]
	},
	{
		"bufferView":12,
		"type":"SCALAR",
		"componentType":5123,
		"count":1980,
		"byteOffset":0,
		"min":[0],
		"max":[373]
	},
	{
		"bufferView":13,
		"type":"VEC3",
		"componentType":5126,
		"count":374,
		"byteOffset":0,
		"min":[-0.3084108531475067,
		0.9864749312400818,
		-0.32428234815597536],
		"max":[0.3084108531475067,
		1.088111162185669,
		0.32428234815597536]
	},
	{
		"bufferView":13,
		"type":"VEC3",
		"componentType":5126,
		"count":374,
		"byteOffset":12,
		"min":[-0.9509652853012085,
		-0.9992917776107788,
		-0.9998686909675598],
		"max":[0.9509652853012085,
		0.9992269277572632,
		0.9998686909675598]
	},
	{
		"bufferView":13,
		"type":"VEC2",
		"componentType":5126,
		"count":374,
		"byteOffset":24,
		"min":[0.0,
		0.0],
		"max":[1.0,
		1.0]
	},
	{
		"bufferView":14,
		"type":"SCALAR",
		"componentType":5123,
		"count":240,
		"byteOffset":0,
		"min":[0],
		"max":[63]
	},
	{
		"bufferView":15,
		"type":"VEC3",
		"componentType":5126,
		"count":64,
		"byteOffset":0,
		"min":[-0.04755282402038574,
		-0.05000000074505806,
		-0.04522542655467987],
		"max":[0.04755282402038574,
		0.05000000074505806,
		0.04522542655467987]
	},
	{
		"bufferView":15,
		"type":"VEC3",
		"componentType":5126,
		"count":64,
		"byteOffset":12,
		"min":[-0.9501633048057556,
		-1.0,
		-0.906752347946167],
		"max":[0.9501633048057556,
		1.0,
		0.906752347946167]
	},
	{
		"bufferView":15,
		"type":"VEC2",
		"componentType":5126,
		"count":64,
		"byteOffset":24,
		"min":[0.0,
		0.0],
		"max":[1.0,
		1.0]
	},
	{
		"bufferView":16,
		"type":"SCALAR",
		"componentType":5123,
		"count":1980,
		"byteOffset":0,
		"min":[0],
		"max":[373]
	},
	{
		"bufferView":17,
		"type":"VEC3",
		"componentType":5126,
		"count":374,
		"byteOffset":0,
		"min":[-0.3084108531475067,
		0.9864749312400818,
		-0.32428234815597536],
		"max":[0.3084108531475067,
		1.088111162185669,
		0.32428234815597536]
	},
	{
		"bufferView":17,
		"type":"VEC3",
		"componentType":5126,
		"count":374,
		"byteOffset":12,
		"min":[-0.9509652853012085,
		-0.9992917776107788,
		-0.9998686909675598],
		"max":[0.9509652853012085,
		0.9992269277572632,
		0.9998686909675598]
	},
	{
		"bufferView":17,
		"type":"VEC2",
		"componentType":5126,
		"count":374,
		"byteOffset":24,
		"min":[0.0,
		0.0],
		"max":[1.0,
		1.0]
	},
	{
		"bufferView":18,
		"type":"SCALAR",
		"componentType":5123,
		"count":516,
		"byteOffset":0,
		"min":[0],
		"max":[115]
	},
	{
		"bufferView":19,
		"type":"VEC3",
		"componentType":5126,
		"count":116,
		"byteOffset":0,
		"min":[-0.35600000619888308,
		0.11972285062074661,
		-1.1312435865402222],
		"max":[0.35600000619888308,
		0.9306448101997376,
		-0.5]
	},
	{
		"bufferView":19,
		"type":"VEC3",
		"componentType":5126,
		"count":116,
		"byteOffset":12,
		"min":[-0.9809313416481018,
		-0.909308671951294,
		-0.9915733337402344],
		"max":[0.9810710549354553,
		0.981904149055481,
		1.0]
	},
	{
		"bufferView":19,
		"type":"VEC2",
		"componentType":5126,
		"count":116,
		"byteOffset":24,
		"min":[0.0,
		0.0],
		"max":[1.0,
		1.0]
	},
	{
		"bufferView":20,
		"type":"SCALAR",
		"componentType":5123,
		"count":8016,
		"byteOffset":0,
		"min":[0],
		"max":[1547]
	},
	{
		"bufferView":21,
		"type":"VEC3",
		"componentType":5126,
		"count":1548,
		"byteOffset":0,
		"min":[-0.5,
		-0.5,
		-0.5],
		"max":[0.5,
		0.5,
		0.5]
	},
	{
		"bufferView":21,
		"type":"VEC3",
		"componentType":5126,
		"count":1548,
		"byteOffset":12,
		"min":[-1.0,
		-1.0,
		-1.0],
		"max":[1.0,
		1.0,
		1.0]
	},
	{
		"bufferView":21,
		"type":"VEC2",
		"componentType":5126,
		"count":1548,
		"byteOffset":24,
		"min":[0.0,
		0.0],
		"max":[1.0,
		1.0]
	}],
	"bufferViews":[{
		"buffer":0,
		"byteOffset":0,
		"byteLength":23328,
		"target":34963
	},
	{
		"buffer":0,
		"byteOffset":23328,
		"byteLength":65120,
		"target":34962,
		"byteStride":32
	},
	{
		"buffer":1,
		"byteOffset":0,
		"byteLength":480,
		"target":34963
	},
	{
		"buffer":1,
		"byteOffset":480,
		"byteLength":2048,
		"target":34962,
		"byteStride":32
	},
	{
		"buffer":2,
		"byteOffset":0,
		"byteLength":3960,
		"target":34963
	},
	{
		"buffer":2,
		"byteOffset":3960,
		"byteLength":11968,
		"target":34962,
		"byteStride":32
	},
	{
		"buffer":3,
		"byteOffset":0,
		"byteLength":480,
		"target":34963
	},
	{
		"buffer":3,
		"byteOffset":480,
		"byteLength":2048,
		"target":34962,
		"byteStride":32
	},
	{
		"buffer":4,
		"byteOffset":0,
		"byteLength":3960,
		"target":34963
	},
	{
		"buffer":4,
		"byteOffset":3960,
		"byteLength":11968,
		"target":34962,
		"byteStride":32
	},
	{
		"buffer":5,
		"byteOffset":0,
		"byteLength":480,
		"target":34963
	},
	{
		"buffer":5,
		"byteOffset":480,
		"byteLength":2048,
		"target":34962,
		"byteStride":32
	},
	{
		"buffer":6,
		"byteOffset":0,
		"byteLength":3960,
		"target":34963
	},
	{
		"buffer":6,
		"byteOffset":3960,
		"byteLength":11968,
		"target":34962,
		"byteStride":32
	},
	{
		"buffer":7,
		"byteOffset":0,
		"byteLength":480,
		"target":34963
	},
	{
		"buffer":7,
		"byteOffset":480,
		"byteLength":2048,
		"target":34962,
		"byteStride":32
	},
	{
		"buffer":8,
		"byteOffset":0,
		"byteLength":3960,
		"target":34963
	},
	{
		"buffer":8,
		"byteOffset":3960,
		"byteLength":11968,
		"target":34962,
		"byteStride":32
	},
	{
		"buffer":9,
		"byteOffset":0,
		"byteLength":1032,
		"target":34963
	},
	{
		"buffer":9,
		"byteOffset":1032,
		"byteLength":3712,
		"target":34962,
		"byteStride":32
	},
	{
		"buffer":10,
		"byteOffset":0,
		"byteLength":16032,
		"target":34963
	},
	{
		"buffer":10,
		"byteOffset":16032,
		"byteLength":49536,
		"target":34962,
		"byteStride":32
	}],
	"materials":[{
		"pbrMetallicRoughness":{
			"baseColorFactor":[1.0,
			1.0,
			1.0,
			1.0],
			"metallicFactor":1.0,
			"roughnessFactor":1.0
		},
		"emissiveFactor":[0.0,
		0.0,
		0.0],
		"alphaMode":"OPAQUE",
		"doubleSided":false,
		"name":"Vinyl-White"
	}]
}